<mxfile host="65bd71144e">
    <diagram id="0NR2BwITZzlwVB5nyDZg" name="Page-1">
        <mxGraphModel dx="1529" dy="929" grid="0" gridSize="10" guides="1" tooltips="1" connect="1" arrows="1" fold="1" page="0" pageScale="1" pageWidth="850" pageHeight="1100" math="0" shadow="0">
            <root>
                <mxCell id="0"/>
                <mxCell id="1" parent="0"/>
                <mxCell id="OfE70X0HZ1pcqq7cRH4l-14" value="" style="rounded=0;whiteSpace=wrap;html=1;sketch=1;hachureGap=4;fontFamily=Times New Roman;fontSize=20;strokeColor=default;strokeWidth=2;" parent="1" vertex="1">
                    <mxGeometry x="-159" y="213" width="863" height="705" as="geometry"/>
                </mxCell>
                <mxCell id="OfE70X0HZ1pcqq7cRH4l-1" value="" style="rounded=0;whiteSpace=wrap;html=1;sketch=1;hachureGap=4;fontFamily=Architects Daughter;fontSource=https%3A%2F%2Ffonts.googleapis.com%2Fcss%3Ffamily%3DArchitects%2BDaughter;fontSize=20;" parent="1" vertex="1">
                    <mxGeometry x="-157" y="278" width="859" height="637" as="geometry"/>
                </mxCell>
                <mxCell id="OfE70X0HZ1pcqq7cRH4l-2" value="" style="rounded=0;whiteSpace=wrap;html=1;sketch=1;hachureGap=4;fontFamily=Architects Daughter;fontSource=https%3A%2F%2Ffonts.googleapis.com%2Fcss%3Ffamily%3DArchitects%2BDaughter;fontSize=20;" parent="1" vertex="1">
                    <mxGeometry x="-126" y="321" width="253" height="314" as="geometry"/>
                </mxCell>
                <mxCell id="OfE70X0HZ1pcqq7cRH4l-3" value="&lt;h2&gt;&lt;font face=&quot;Times New Roman&quot;&gt;Library&lt;/font&gt;&lt;/h2&gt;" style="text;strokeColor=none;fillColor=none;html=1;align=center;verticalAlign=middle;whiteSpace=wrap;rounded=0;sketch=1;hachureGap=4;fontFamily=Architects Daughter;fontSource=https%3A%2F%2Ffonts.googleapis.com%2Fcss%3Ffamily%3DArchitects%2BDaughter;fontSize=20;" parent="1" vertex="1">
                    <mxGeometry x="-25" y="286" width="60" height="30" as="geometry"/>
                </mxCell>
                <mxCell id="OfE70X0HZ1pcqq7cRH4l-4" value="&lt;h2&gt;&lt;font face=&quot;Times New Roman&quot;&gt;Cell&lt;/font&gt;&lt;/h2&gt;" style="text;strokeColor=none;fillColor=none;html=1;align=center;verticalAlign=middle;whiteSpace=wrap;rounded=0;sketch=1;hachureGap=4;fontFamily=Architects Daughter;fontSource=https%3A%2F%2Ffonts.googleapis.com%2Fcss%3Ffamily%3DArchitects%2BDaughter;fontSize=20;" parent="1" vertex="1">
                    <mxGeometry x="249" y="286" width="60" height="30" as="geometry"/>
                </mxCell>
                <mxCell id="OfE70X0HZ1pcqq7cRH4l-5" value="&lt;h2&gt;&lt;font face=&quot;Times New Roman&quot;&gt;View&lt;/font&gt;&lt;/h2&gt;" style="text;strokeColor=none;fillColor=none;html=1;align=center;verticalAlign=middle;whiteSpace=wrap;rounded=0;sketch=1;hachureGap=4;fontFamily=Architects Daughter;fontSource=https%3A%2F%2Ffonts.googleapis.com%2Fcss%3Ffamily%3DArchitects%2BDaughter;fontSize=20;" parent="1" vertex="1">
                    <mxGeometry x="522.5" y="286" width="60" height="30" as="geometry"/>
                </mxCell>
                <mxCell id="OfE70X0HZ1pcqq7cRH4l-6" value="" style="rounded=0;whiteSpace=wrap;html=1;sketch=1;hachureGap=4;fontFamily=Architects Daughter;fontSource=https%3A%2F%2Ffonts.googleapis.com%2Fcss%3Ffamily%3DArchitects%2BDaughter;fontSize=20;" parent="1" vertex="1">
                    <mxGeometry x="155" y="321" width="253" height="314" as="geometry"/>
                </mxCell>
                <mxCell id="OfE70X0HZ1pcqq7cRH4l-7" value="" style="rounded=0;whiteSpace=wrap;html=1;sketch=1;hachureGap=4;fontFamily=Architects Daughter;fontSource=https%3A%2F%2Ffonts.googleapis.com%2Fcss%3Ffamily%3DArchitects%2BDaughter;fontSize=20;" parent="1" vertex="1">
                    <mxGeometry x="426" y="323" width="253" height="314" as="geometry"/>
                </mxCell>
                <mxCell id="OfE70X0HZ1pcqq7cRH4l-8" value="" style="rounded=0;whiteSpace=wrap;html=1;sketch=1;hachureGap=4;fontFamily=Architects Daughter;fontSource=https%3A%2F%2Ffonts.googleapis.com%2Fcss%3Ffamily%3DArchitects%2BDaughter;fontSize=20;" parent="1" vertex="1">
                    <mxGeometry x="-129" y="674" width="808" height="205" as="geometry"/>
                </mxCell>
                <mxCell id="OfE70X0HZ1pcqq7cRH4l-10" value="Project1" style="text;html=1;align=center;verticalAlign=middle;whiteSpace=wrap;rounded=0;sketch=1;hachureGap=4;fontFamily=Times New Roman;fontSize=20;strokeWidth=2;strokeColor=default;" parent="1" vertex="1">
                    <mxGeometry x="-159" y="248" width="93" height="30" as="geometry"/>
                </mxCell>
                <mxCell id="OfE70X0HZ1pcqq7cRH4l-11" value="Project2" style="text;html=1;align=center;verticalAlign=middle;whiteSpace=wrap;rounded=0;sketch=1;hachureGap=4;fontFamily=Times New Roman;fontSize=20;strokeWidth=2;strokeColor=default;" parent="1" vertex="1">
                    <mxGeometry x="-66" y="248" width="93" height="30" as="geometry"/>
                </mxCell>
                <mxCell id="OfE70X0HZ1pcqq7cRH4l-12" value="Project3" style="text;html=1;align=center;verticalAlign=middle;whiteSpace=wrap;rounded=0;sketch=1;hachureGap=4;fontFamily=Times New Roman;fontSize=20;strokeWidth=2;strokeColor=default;" parent="1" vertex="1">
                    <mxGeometry x="27" y="248" width="93" height="30" as="geometry"/>
                </mxCell>
                <mxCell id="OfE70X0HZ1pcqq7cRH4l-13" value="+" style="text;html=1;align=center;verticalAlign=middle;whiteSpace=wrap;rounded=0;sketch=1;hachureGap=4;fontFamily=Times New Roman;fontSize=20;strokeWidth=2;strokeColor=default;" parent="1" vertex="1">
                    <mxGeometry x="120" y="248" width="30" height="30" as="geometry"/>
                </mxCell>
                <mxCell id="OfE70X0HZ1pcqq7cRH4l-15" value="File" style="text;html=1;align=center;verticalAlign=middle;whiteSpace=wrap;rounded=0;sketch=1;hachureGap=4;fontFamily=Times New Roman;fontSize=20;strokeWidth=2;strokeColor=none;" parent="1" vertex="1">
                    <mxGeometry x="-159" y="213" width="66" height="30" as="geometry"/>
                </mxCell>
                <mxCell id="OfE70X0HZ1pcqq7cRH4l-16" value="Envs" style="text;html=1;align=center;verticalAlign=middle;whiteSpace=wrap;rounded=0;sketch=1;hachureGap=4;fontFamily=Times New Roman;fontSize=20;strokeWidth=2;strokeColor=none;" parent="1" vertex="1">
                    <mxGeometry x="-93" y="213" width="66" height="30" as="geometry"/>
                </mxCell>
                <mxCell id="OfE70X0HZ1pcqq7cRH4l-17" value="Options" style="text;html=1;align=center;verticalAlign=middle;whiteSpace=wrap;rounded=0;sketch=1;hachureGap=4;fontFamily=Times New Roman;fontSize=20;strokeWidth=2;strokeColor=none;" parent="1" vertex="1">
                    <mxGeometry x="-27" y="213" width="91" height="30" as="geometry"/>
                </mxCell>
                <mxCell id="OfE70X0HZ1pcqq7cRH4l-18" value="X" style="text;html=1;align=center;verticalAlign=middle;whiteSpace=wrap;rounded=0;sketch=1;hachureGap=4;fontFamily=Times New Roman;fontSize=20;strokeWidth=2;strokeColor=default;" parent="1" vertex="1">
                    <mxGeometry x="673" y="215" width="31" height="30" as="geometry"/>
                </mxCell>
                <mxCell id="OfE70X0HZ1pcqq7cRH4l-19" value="&lt;font style=&quot;font-size: 28px&quot;&gt;-&lt;/font&gt;" style="text;html=1;align=center;verticalAlign=middle;whiteSpace=wrap;rounded=0;sketch=1;hachureGap=4;fontFamily=Times New Roman;fontSize=20;strokeWidth=2;strokeColor=default;" parent="1" vertex="1">
                    <mxGeometry x="609" y="215" width="31" height="30" as="geometry"/>
                </mxCell>
                <mxCell id="OfE70X0HZ1pcqq7cRH4l-20" value="&lt;font style=&quot;font-size: 14px&quot;&gt;README&lt;/font&gt;" style="text;html=1;align=center;verticalAlign=bottom;whiteSpace=wrap;rounded=0;sketch=1;hachureGap=4;fontFamily=Times New Roman;fontSize=20;strokeWidth=2;strokeColor=default;" parent="1" vertex="1">
                    <mxGeometry x="-129" y="654" width="93" height="21" as="geometry"/>
                </mxCell>
                <mxCell id="OfE70X0HZ1pcqq7cRH4l-21" value="" style="text;html=1;align=center;verticalAlign=middle;whiteSpace=wrap;rounded=0;sketch=1;hachureGap=4;fontFamily=Times New Roman;fontSize=20;strokeWidth=2;strokeColor=default;" parent="1" vertex="1">
                    <mxGeometry x="640" y="215" width="31" height="30" as="geometry"/>
                </mxCell>
                <mxCell id="OfE70X0HZ1pcqq7cRH4l-22" value="" style="text;html=1;align=center;verticalAlign=middle;whiteSpace=wrap;rounded=0;sketch=1;hachureGap=4;fontFamily=Times New Roman;fontSize=20;strokeWidth=2;strokeColor=default;" parent="1" vertex="1">
                    <mxGeometry x="650.75" y="225" width="9.5" height="10" as="geometry"/>
                </mxCell>
                <mxCell id="OfE70X0HZ1pcqq7cRH4l-23" value="&lt;font style=&quot;font-size: 14px&quot;&gt;Properties&lt;/font&gt;" style="text;html=1;align=center;verticalAlign=bottom;whiteSpace=wrap;rounded=0;sketch=1;hachureGap=4;fontFamily=Times New Roman;fontSize=20;strokeWidth=2;strokeColor=default;" parent="1" vertex="1">
                    <mxGeometry x="57" y="654" width="93" height="21" as="geometry"/>
                </mxCell>
                <mxCell id="OfE70X0HZ1pcqq7cRH4l-24" value="&lt;font style=&quot;font-size: 14px&quot;&gt;Console&lt;/font&gt;" style="text;html=1;align=center;verticalAlign=bottom;whiteSpace=wrap;rounded=0;sketch=1;hachureGap=4;fontFamily=Times New Roman;fontSize=20;strokeWidth=2;strokeColor=default;" parent="1" vertex="1">
                    <mxGeometry x="360" y="654" width="93" height="21" as="geometry"/>
                </mxCell>
                <mxCell id="OfE70X0HZ1pcqq7cRH4l-32" value="Opening...." style="text;strokeColor=none;fillColor=none;html=1;align=center;verticalAlign=middle;whiteSpace=wrap;rounded=0;sketch=1;hachureGap=4;fontFamily=Times New Roman;fontSize=16;" parent="1" vertex="1">
                    <mxGeometry x="408" y="885" width="273" height="30" as="geometry"/>
                </mxCell>
                <mxCell id="OfE70X0HZ1pcqq7cRH4l-33" value="project: project_to_rev..." style="text;strokeColor=none;fillColor=none;html=1;align=center;verticalAlign=middle;whiteSpace=wrap;rounded=0;sketch=1;hachureGap=4;fontFamily=Times New Roman;fontSize=16;" parent="1" vertex="1">
                    <mxGeometry x="-129" y="882" width="179" height="30" as="geometry"/>
                </mxCell>
                <mxCell id="OfE70X0HZ1pcqq7cRH4l-34" value="env: skywater_130_conda_env" style="text;strokeColor=none;fillColor=none;html=1;align=center;verticalAlign=middle;whiteSpace=wrap;rounded=0;sketch=1;hachureGap=4;fontFamily=Times New Roman;fontSize=16;" parent="1" vertex="1">
                    <mxGeometry x="64" y="885" width="219" height="30" as="geometry"/>
                </mxCell>
                <mxCell id="OfE70X0HZ1pcqq7cRH4l-35" value="Virtue" style="text;html=1;align=center;verticalAlign=middle;whiteSpace=wrap;rounded=0;sketch=1;hachureGap=4;fontFamily=Times New Roman;fontSize=20;strokeWidth=2;strokeColor=none;" parent="1" vertex="1">
                    <mxGeometry x="215" y="215" width="91" height="30" as="geometry"/>
                </mxCell>
                <mxCell id="2" value="&lt;font style=&quot;font-size: 14px&quot;&gt;Issues&lt;/font&gt;" style="text;html=1;align=center;verticalAlign=bottom;whiteSpace=wrap;rounded=0;sketch=1;hachureGap=4;fontFamily=Times New Roman;fontSize=20;strokeWidth=2;strokeColor=default;" parent="1" vertex="1">
                    <mxGeometry x="-36" y="654" width="93" height="21" as="geometry"/>
                </mxCell>
                <mxCell id="4" value="VCS" style="text;html=1;align=center;verticalAlign=middle;whiteSpace=wrap;rounded=0;sketch=1;hachureGap=4;fontFamily=Times New Roman;fontSize=20;strokeWidth=2;strokeColor=none;" parent="1" vertex="1">
                    <mxGeometry x="158" y="215" width="57" height="30" as="geometry"/>
                </mxCell>
                <mxCell id="5" value="GitHub" style="text;html=1;align=center;verticalAlign=middle;whiteSpace=wrap;rounded=0;sketch=1;hachureGap=4;fontFamily=Times New Roman;fontSize=20;strokeWidth=2;strokeColor=none;" parent="1" vertex="1">
                    <mxGeometry x="27" y="215" width="155" height="30" as="geometry"/>
                </mxCell>
                <mxCell id="6" value="+" style="text;html=1;align=center;verticalAlign=middle;whiteSpace=wrap;rounded=0;sketch=1;hachureGap=4;fontFamily=Times New Roman;fontSize=20;strokeWidth=2;strokeColor=default;" parent="1" vertex="1">
                    <mxGeometry x="453" y="654" width="25" height="21" as="geometry"/>
                </mxCell>
                <mxCell id="7" value="Generator_IP" style="text;html=1;strokeColor=none;fillColor=none;align=left;verticalAlign=middle;whiteSpace=wrap;rounded=0;" parent="1" vertex="1">
                    <mxGeometry x="-113" y="378" width="77" height="25" as="geometry"/>
                </mxCell>
                <mxCell id="8" value="project_to_change_the_world" style="text;html=1;strokeColor=none;fillColor=none;align=left;verticalAlign=middle;whiteSpace=wrap;rounded=0;" parent="1" vertex="1">
                    <mxGeometry x="-113.5" y="328" width="170.5" height="25" as="geometry"/>
                </mxCell>
                <mxCell id="9" value="revolutionary_ip" style="text;html=1;strokeColor=none;fillColor=none;align=left;verticalAlign=middle;whiteSpace=wrap;rounded=0;" parent="1" vertex="1">
                    <mxGeometry x="-113.5" y="353" width="170.5" height="25" as="geometry"/>
                </mxCell>
                <mxCell id="11" value="bandgap" style="text;html=1;strokeColor=none;fillColor=none;align=left;verticalAlign=middle;whiteSpace=wrap;rounded=0;" parent="1" vertex="1">
                    <mxGeometry x="165" y="328" width="170.5" height="25" as="geometry"/>
                </mxCell>
                <mxCell id="12" value="lna" style="text;html=1;strokeColor=none;fillColor=none;align=left;verticalAlign=middle;whiteSpace=wrap;rounded=0;" parent="1" vertex="1">
                    <mxGeometry x="165" y="353" width="170.5" height="25" as="geometry"/>
                </mxCell>
                <mxCell id="13" value="logic_block" style="text;html=1;strokeColor=none;fillColor=none;align=left;verticalAlign=middle;whiteSpace=wrap;rounded=0;" parent="1" vertex="1">
                    <mxGeometry x="165" y="380" width="170.5" height="25" as="geometry"/>
                </mxCell>
                <mxCell id="14" value="schematic" style="text;html=1;strokeColor=none;fillColor=none;align=left;verticalAlign=middle;whiteSpace=wrap;rounded=0;" parent="1" vertex="1">
                    <mxGeometry x="435" y="328" width="170.5" height="25" as="geometry"/>
                </mxCell>
                <mxCell id="15" value="layout" style="text;html=1;strokeColor=none;fillColor=none;align=left;verticalAlign=middle;whiteSpace=wrap;rounded=0;" parent="1" vertex="1">
                    <mxGeometry x="435" y="355" width="170.5" height="25" as="geometry"/>
                </mxCell>
                <mxCell id="16" value="symbol" style="text;html=1;strokeColor=none;fillColor=none;align=left;verticalAlign=middle;whiteSpace=wrap;rounded=0;" parent="1" vertex="1">
                    <mxGeometry x="435" y="383" width="170.5" height="25" as="geometry"/>
                </mxCell>
                <mxCell id="17" value="design_review" style="text;html=1;strokeColor=none;fillColor=none;align=left;verticalAlign=middle;whiteSpace=wrap;rounded=0;" parent="1" vertex="1">
                    <mxGeometry x="435" y="413" width="170.5" height="25" as="geometry"/>
                </mxCell>
                <mxCell id="18" value="test_script" style="text;html=1;strokeColor=none;fillColor=none;align=left;verticalAlign=middle;whiteSpace=wrap;rounded=0;" parent="1" vertex="1">
                    <mxGeometry x="435" y="444" width="170.5" height="25" as="geometry"/>
                </mxCell>
                <mxCell id="19" value="metadata_toml" style="text;html=1;strokeColor=none;fillColor=none;align=left;verticalAlign=middle;whiteSpace=wrap;rounded=0;" parent="1" vertex="1">
                    <mxGeometry x="435" y="471" width="170.5" height="25" as="geometry"/>
                </mxCell>
                <mxCell id="20" value="IP" style="text;html=1;align=center;verticalAlign=middle;whiteSpace=wrap;rounded=0;sketch=1;hachureGap=4;fontFamily=Times New Roman;fontSize=20;strokeWidth=2;strokeColor=none;" parent="1" vertex="1">
                    <mxGeometry x="281" y="215" width="91" height="30" as="geometry"/>
                </mxCell>
                <mxCell id="21" value="&lt;font style=&quot;font-size: 14px&quot;&gt;Schedule&lt;/font&gt;" style="text;html=1;align=center;verticalAlign=bottom;whiteSpace=wrap;rounded=0;sketch=1;hachureGap=4;fontFamily=Times New Roman;fontSize=20;strokeWidth=2;strokeColor=default;" vertex="1" parent="1">
                    <mxGeometry x="150" y="654" width="93" height="21" as="geometry"/>
                </mxCell>
                <mxCell id="22" value="&lt;font style=&quot;font-size: 14px&quot;&gt;Layout Request&lt;/font&gt;" style="text;html=1;align=center;verticalAlign=bottom;whiteSpace=wrap;rounded=0;sketch=1;hachureGap=4;fontFamily=Times New Roman;fontSize=20;strokeWidth=2;strokeColor=default;" vertex="1" parent="1">
                    <mxGeometry x="243" y="654" width="117" height="21" as="geometry"/>
                </mxCell>
            </root>
        </mxGraphModel>
    </diagram>
</mxfile>